<svg width="70" height="70" viewBox="0 0 70 70" fill="none" xmlns="http://www.w3.org/2000/svg">
<rect width="70" height="70" rx="20" fill="#FAF8E1"/>
<path d="M26.3 26.2282H44.2436V44.1718H26.3V26.2282Z" fill="#FCD146"/>
<path d="M52.0371 19.4694C52.0371 18.8693 51.5561 18.3437 50.9557 18.3437H44.6965V13.0874H42.5215V18.3437H39.259V13.0874H37.084V18.3437H33.3683V13.0874H31.1933V18.3437H27.4777V13.0874H25.3027V18.3437H19.5344C18.9201 18.3592 18.4272 18.8551 18.4152 19.4694V25.775H12.7058V27.95H18.4152V31.1219H12.7058V33.2969H18.4152V37.0125H12.7058V39.1875H18.4152V42.9031H12.7058V45.0781H18.4152V50.8907C18.4152 51.4915 18.9337 51.9657 19.5344 51.9657H25.3027V57.3125H27.4777V51.9657H31.1933V57.3125H33.3683V51.9657H37.084V57.3125H39.259V51.9657H42.5215V57.3125H44.6965V51.9657H50.9557C51.2422 51.9682 51.5176 51.8563 51.7209 51.6543C51.9241 51.4523 52.0381 51.1772 52.0371 50.8908V45.0782H57.2934V42.9032H52.0371V39.1875H57.2934V37.0125H52.0371V33.2969H57.2934V31.1219H52.0371V27.95H57.2934V25.775H52.0371L52.0371 19.4694ZM46.4184 45.2595C46.4184 45.8602 45.9316 46.347 45.3309 46.347H25.2123C24.6116 46.347 24.1249 45.8602 24.1249 45.2595V25.141C24.1249 24.5403 24.6116 24.0535 25.2123 24.0535H45.3309C45.9316 24.0535 46.4184 24.5403 46.4184 25.141V45.2595Z" fill="#FCD146"/>
</svg>
