<svg width="22" height="18" viewBox="0 0 22 18" fill="none" xmlns="http://www.w3.org/2000/svg">
<path d="M21.5832 6.19844C21.7508 6.06523 22 6.18984 22 6.40039V15.1875C22 16.3262 21.0762 17.25 19.9375 17.25H2.0625C0.923828 17.25 0 16.3262 0 15.1875V6.40469C0 6.18984 0.244922 6.06953 0.416797 6.20273C1.3793 6.95039 2.65547 7.9 7.03828 11.084C7.94492 11.7457 9.47461 13.1379 11 13.1293C12.534 13.1422 14.0937 11.7199 14.966 11.084C19.3488 7.9 20.6207 6.94609 21.5832 6.19844ZM11 11.75C11.9969 11.7672 13.432 10.4953 14.1539 9.97109C19.8559 5.8332 20.2898 5.47227 21.6047 4.44102C21.8539 4.24766 22 3.94688 22 3.62891V2.8125C22 1.67383 21.0762 0.75 19.9375 0.75H2.0625C0.923828 0.75 0 1.67383 0 2.8125V3.62891C0 3.94688 0.146094 4.24336 0.395312 4.44102C1.71016 5.46797 2.14414 5.8332 7.84609 9.97109C8.56797 10.4953 10.0031 11.7672 11 11.75Z" fill="#2B9CED"/>
</svg>
