<svg width="70" height="70" viewBox="0 0 70 70" fill="none" xmlns="http://www.w3.org/2000/svg">
<rect width="70" height="70" rx="20" fill="#DEF0FC"/>
<path d="M18.0487 34.162L23.1527 36.2786H23.1524C22.577 37.7315 22.1181 39.2278 21.7799 40.7535L21.5862 41.6334L28.9035 48.955L29.7834 48.7659V48.7656C31.3091 48.4274 32.8053 47.9685 34.2583 47.393L36.3748 52.4971L36.3745 52.4968C36.4166 52.5996 36.5077 52.6742 36.6167 52.6957C36.7257 52.7169 36.838 52.6819 36.9156 52.6024L40.1144 49.4037H40.1147C41.1702 48.3481 41.7297 46.8952 41.6545 45.4042L41.5403 43.3494C47.4627 38.9758 53.4549 31.3068 55.0876 17.9221C55.1815 17.242 54.9523 16.557 54.4679 16.0699C53.9839 15.5831 53.3001 15.3505 52.6194 15.4407C39.2387 17.0861 31.5654 23.0834 27.1921 28.988L25.1416 28.8824C23.6539 28.8014 22.2013 29.3529 21.1421 30.4004L17.9434 33.5991C17.8532 33.6759 17.8108 33.795 17.8326 33.9116C17.8544 34.0279 17.937 34.1237 18.049 34.1623L18.0487 34.162ZM38.57 26.3654C39.3133 25.6245 40.3203 25.2092 41.3697 25.2104C42.4193 25.2117 43.4254 25.6294 44.167 26.3718C44.9085 27.1142 45.3253 28.121 45.3253 29.1703C45.3253 30.2196 44.9085 31.2263 44.167 31.9688C43.4255 32.7112 42.4194 33.1293 41.3697 33.1301C40.3204 33.1314 39.3133 32.7161 38.57 31.9752C37.8241 31.2322 37.4052 30.223 37.4052 29.1703C37.4052 28.1176 37.8242 27.1084 38.57 26.3654ZM17.0932 49.54C16.2462 49.2426 15.3368 49.1699 14.4531 49.3286C14.2935 49.3632 14.1274 49.3135 14.0133 49.1966C13.8706 49.0545 13.8319 48.8384 13.9163 48.6555C14.8536 46.6403 17.3396 42.588 21.841 45.8616C21.8886 45.9039 21.9159 45.965 21.9159 46.0285C21.9159 46.0924 21.8886 46.1534 21.841 46.1958C20.6188 47.1583 19.9279 48.645 19.9798 50.1999C19.9865 50.3865 20.1363 50.5363 20.3229 50.543C21.871 50.6053 23.3568 49.9295 24.327 48.7214C24.3697 48.6692 24.4335 48.6388 24.5007 48.6388C24.5682 48.6388 24.6321 48.6692 24.6747 48.7214C25.2996 49.4651 27.0199 51.8937 25.1149 54.2389H25.1146C24.2828 55.2389 23.091 55.8709 21.797 55.9991C19.949 56.197 16.5346 56.7998 15.1399 58.3928C15.0257 58.5278 14.8465 58.5892 14.6734 58.5524C14.5006 58.5155 14.3619 58.3866 14.3125 58.2166C13.8199 56.5359 13.0541 52.7783 17.0935 49.5399L17.0932 49.54Z" fill="#2B9CED"/>
</svg>
