<svg width="48" height="48" viewBox="0 0 48 48" fill="none" xmlns="http://www.w3.org/2000/svg">
<circle cx="24" cy="24" r="24" fill="#2B9CED"/>
<path d="M33.2252 29.7503C33.0388 29.7605 32.8628 29.7605 32.6764 29.7605C29.6628 29.7605 26.8252 28.6091 24.6919 26.51C22.5586 24.4109 21.3883 21.619 21.3883 18.6538C21.3883 16.9623 21.7715 15.332 22.4861 13.8545C22.8071 13.2024 23.1903 12.5808 23.6356 12C22.8485 12.0815 22.0926 12.2445 21.3573 12.4687C16.5107 13.9768 13 18.4296 13 23.6977C13 30.1986 18.354 35.4667 24.9612 35.4667C28.6168 35.4667 31.879 33.8567 34.0744 31.3195C34.5715 30.7387 35.0272 30.1069 35.4 29.4344C34.6958 29.6076 33.9709 29.7197 33.2252 29.7503ZM24.9612 33.8363C19.2757 33.8363 14.657 29.2918 14.657 23.6977C14.657 19.7135 16.9974 16.2694 20.3942 14.6085C19.9592 15.8822 19.7314 17.2375 19.7314 18.6538C19.7314 25.3688 25.0129 30.8712 31.7029 31.3603C29.901 32.9091 27.5398 33.8363 24.9612 33.8363Z" fill="white"/>
</svg>
