<svg width="58" height="47" viewBox="0 0 58 47" fill="none" xmlns="http://www.w3.org/2000/svg">
<path d="M25.2754 46.954L19.7472 45.3292C19.1672 45.1639 18.841 44.5489 19.0041 43.9614L31.3744 0.798516C31.5376 0.211016 32.1447 -0.119453 32.7247 0.0457819L38.2529 1.67059C38.8329 1.83582 39.1591 2.45086 38.996 3.03836L26.6257 46.2013C26.4535 46.7888 25.8554 47.1284 25.2754 46.954ZM14.9441 36.6544L18.8863 32.395C19.3032 31.9452 19.276 31.2292 18.8138 30.8161L10.6032 23.4999L18.8138 16.1837C19.276 15.7706 19.3122 15.0546 18.8863 14.6048L14.9441 10.3454C14.5363 9.90477 13.8476 9.87723 13.4035 10.2995L0.344443 22.6921C-0.117744 23.1235 -0.117744 23.8671 0.344443 24.2985L13.4035 36.7003C13.8476 37.1225 14.5363 37.1042 14.9441 36.6544ZM44.5966 36.7095L57.6557 24.3077C58.1179 23.8763 58.1179 23.1327 57.6557 22.7013L44.5966 10.2903C44.1616 9.87723 43.4729 9.89559 43.056 10.3362L39.1138 14.5956C38.6969 15.0454 38.7241 15.7614 39.1863 16.1745L47.3969 23.4999L39.1863 30.8161C38.7241 31.2292 38.6879 31.9452 39.1138 32.395L43.056 36.6544C43.4638 37.1042 44.1525 37.1225 44.5966 36.7095Z" fill="#FCD146"/>
</svg>
