<svg width="31" height="31" viewBox="0 0 31 31" fill="none" xmlns="http://www.w3.org/2000/svg">
<path d="M23.3961 15.6611L16.8803 9.14582C16.7376 9.0031 16.5233 8.96176 16.3354 9.03683C16.1475 9.11572 16.0273 9.29615 16.0273 9.49909V12.5052L3.49976 12.505C3.2254 12.5088 3 12.7306 3 13.0086V19.0208C3 19.2988 3.22541 19.5206 3.49976 19.5206H16.0238V22.5266C16.0238 22.7295 16.144 22.9136 16.3319 22.9889C16.3957 23.0152 16.6663 23.1017 16.8768 22.8799L23.3886 16.3681C23.5913 16.1726 23.5913 15.8571 23.396 15.6616L23.3961 15.6611ZM17.0269 21.3164V19.0205C17.0269 18.7425 16.8015 18.5207 16.5272 18.5207H4.00316V13.508H16.5272C16.8052 13.508 17.0269 13.2826 17.0269 13.0082V10.7123L22.3328 16.0142L17.0269 21.3164Z" fill="white"/>
<path d="M26.9022 15.6619L20.3904 9.14661C20.1949 8.95113 19.8794 8.95113 19.6803 9.14661C19.4848 9.34209 19.4848 9.65762 19.6803 9.85673L25.8391 16.0155L19.6803 22.1744C19.4848 22.3698 19.4848 22.6854 19.6803 22.8845C19.778 22.9822 20.1162 23.1326 20.3904 22.8845L26.9022 16.3727C27.0975 16.1736 27.0975 15.8581 26.9022 15.6626V15.6619Z" fill="white"/>
</svg>
