<svg width="40" height="40" viewBox="0 0 40 40" fill="none" xmlns="http://www.w3.org/2000/svg">
<rect width="40" height="40" rx="5" fill="#2B9CED"/>
<path d="M14.1483 32H9.37991V16.6441H14.1483V32ZM11.7615 14.5494C10.2368 14.5494 9 13.2864 9 11.7616C9 11.0292 9.29095 10.3268 9.80884 9.80885C10.3267 9.29095 11.0291 9 11.7615 9C12.4939 9 13.1964 9.29095 13.7142 9.80885C14.2321 10.3268 14.5231 11.0292 14.5231 11.7616C14.5231 13.2864 13.2858 14.5494 11.7615 14.5494ZM31.9949 32H27.2367V24.5248C27.2367 22.7433 27.2008 20.4587 24.7576 20.4587C22.2784 20.4587 21.8985 22.3942 21.8985 24.3965V32H17.1352V16.6441H21.7085V18.7388H21.7753C22.4119 17.5323 23.9669 16.259 26.287 16.259C31.1129 16.259 32 19.437 32 23.5648V32H31.9949Z" fill="white"/>
</svg>
