<svg width="54" height="48" viewBox="0 0 54 48" fill="none" xmlns="http://www.w3.org/2000/svg">
<path d="M50.625 13.875H3.375C1.51105 13.875 0 12.3639 0 10.5V3.75C0 1.88605 1.51105 0.375 3.375 0.375H50.625C52.4889 0.375 54 1.88605 54 3.75V10.5C54 12.3639 52.4889 13.875 50.625 13.875ZM45.5625 4.59375C44.1645 4.59375 43.0312 5.72701 43.0312 7.125C43.0312 8.52299 44.1645 9.65625 45.5625 9.65625C46.9605 9.65625 48.0938 8.52299 48.0938 7.125C48.0938 5.72701 46.9605 4.59375 45.5625 4.59375ZM38.8125 4.59375C37.4145 4.59375 36.2812 5.72701 36.2812 7.125C36.2812 8.52299 37.4145 9.65625 38.8125 9.65625C40.2105 9.65625 41.3438 8.52299 41.3438 7.125C41.3438 5.72701 40.2105 4.59375 38.8125 4.59375ZM50.625 30.75H3.375C1.51105 30.75 0 29.2389 0 27.375V20.625C0 18.7611 1.51105 17.25 3.375 17.25H50.625C52.4889 17.25 54 18.7611 54 20.625V27.375C54 29.2389 52.4889 30.75 50.625 30.75ZM45.5625 21.4688C44.1645 21.4688 43.0312 22.602 43.0312 24C43.0312 25.398 44.1645 26.5312 45.5625 26.5312C46.9605 26.5312 48.0938 25.398 48.0938 24C48.0938 22.602 46.9605 21.4688 45.5625 21.4688ZM38.8125 21.4688C37.4145 21.4688 36.2812 22.602 36.2812 24C36.2812 25.398 37.4145 26.5312 38.8125 26.5312C40.2105 26.5312 41.3438 25.398 41.3438 24C41.3438 22.602 40.2105 21.4688 38.8125 21.4688ZM50.625 47.625H3.375C1.51105 47.625 0 46.1139 0 44.25V37.5C0 35.6361 1.51105 34.125 3.375 34.125H50.625C52.4889 34.125 54 35.6361 54 37.5V44.25C54 46.1139 52.4889 47.625 50.625 47.625ZM45.5625 38.3438C44.1645 38.3438 43.0312 39.477 43.0312 40.875C43.0312 42.273 44.1645 43.4062 45.5625 43.4062C46.9605 43.4062 48.0938 42.273 48.0938 40.875C48.0938 39.477 46.9605 38.3438 45.5625 38.3438ZM38.8125 38.3438C37.4145 38.3438 36.2812 39.477 36.2812 40.875C36.2812 42.273 37.4145 43.4062 38.8125 43.4062C40.2105 43.4062 41.3438 42.273 41.3438 40.875C41.3438 39.477 40.2105 38.3438 38.8125 38.3438Z" fill="#2B9CED"/>
</svg>
