<svg width="47" height="38" viewBox="0 0 47 38" fill="none" xmlns="http://www.w3.org/2000/svg">
<path d="M21.6923 22.1786V32.25C21.6923 35.0302 19.2632 37.2857 16.2692 37.2857H5.42308C2.42909 37.2857 0 35.0302 0 32.25V13.7857C0 6.38954 6.49639 0.357178 14.4615 0.357178H16.2692C17.2578 0.357178 18.0769 1.11778 18.0769 2.03575V5.39289C18.0769 6.31086 17.2578 7.07146 16.2692 7.07146H14.4615C10.479 7.07146 7.23077 10.0876 7.23077 13.7857V14.625C7.23077 16.0151 8.44531 17.1429 9.94231 17.1429H16.2692C19.2632 17.1429 21.6923 19.3985 21.6923 22.1786ZM47 22.1786V32.25C47 35.0302 44.5709 37.2857 41.5769 37.2857H30.7308C27.7368 37.2857 25.3077 35.0302 25.3077 32.25V13.7857C25.3077 6.38954 31.8041 0.357178 39.7692 0.357178H41.5769C42.5655 0.357178 43.3846 1.11778 43.3846 2.03575V5.39289C43.3846 6.31086 42.5655 7.07146 41.5769 7.07146H39.7692C35.7867 7.07146 32.5385 10.0876 32.5385 13.7857V14.625C32.5385 16.0151 33.753 17.1429 35.25 17.1429H41.5769C44.5709 17.1429 47 19.3985 47 22.1786Z" fill="#FAF8E1"/>
</svg>
