<svg width="23" height="24" viewBox="0 0 23 24" fill="none" xmlns="http://www.w3.org/2000/svg">
<path d="M20.2252 17.7503C20.0388 17.7605 19.8628 17.7605 19.6764 17.7605C16.6628 17.7605 13.8252 16.6091 11.6919 14.51C9.55858 12.4109 8.38835 9.61899 8.38835 6.65381C8.38835 4.96234 8.77152 3.332 9.48608 1.85451C9.80712 1.20237 10.1903 0.580808 10.6356 0C9.84854 0.0815169 9.09256 0.24455 8.35728 0.468721C3.51068 1.97678 0 6.42964 0 11.6977C0 18.1986 5.35404 23.4667 11.9612 23.4667C15.6168 23.4667 18.879 21.8567 21.0744 19.3195C21.5715 18.7387 22.0272 18.1069 22.4 17.4344C21.6958 17.6076 20.9709 17.7197 20.2252 17.7503ZM11.9612 21.8363C6.27573 21.8363 1.65696 17.2918 1.65696 11.6977C1.65696 7.71353 3.99741 4.26944 7.39417 2.60854C6.95922 3.88224 6.73139 5.23746 6.73139 6.65381C6.73139 13.3688 12.0129 18.8712 18.7029 19.3603C16.901 20.9091 14.5398 21.8363 11.9612 21.8363Z" fill="white"/>
</svg>
