<svg width="48" height="48" viewBox="0 0 48 48" fill="none" xmlns="http://www.w3.org/2000/svg">
<circle cx="24" cy="24" r="24" fill="#2B9CED"/>
<path d="M12 23.4949C12 23.2311 12.0913 23.0079 12.2739 22.8253C12.4633 22.6495 12.6798 22.5615 12.9232 22.5615H15.135C15.3852 22.5615 15.5932 22.6528 15.7589 22.8355C15.9246 23.0181 16.0075 23.2379 16.0075 23.4949C16.0075 23.7519 15.9246 23.9701 15.7589 24.1493C15.5932 24.3286 15.3852 24.4182 15.135 24.4182H12.9232C12.673 24.4182 12.4566 24.3269 12.2739 24.1442C12.0913 23.9616 12 23.7452 12 23.4949ZM15.0944 30.9925C15.0944 30.7422 15.1789 30.5224 15.348 30.333L16.9409 28.7909C17.1032 28.6218 17.3163 28.5373 17.5801 28.5373C17.8371 28.5373 18.0518 28.6184 18.2243 28.7808C18.3968 28.9431 18.483 29.1494 18.483 29.3996C18.483 29.6634 18.3951 29.8934 18.2192 30.0895L16.6771 31.6317C16.2375 31.9766 15.7944 31.9766 15.348 31.6317C15.1789 31.4491 15.0944 31.236 15.0944 30.9925ZM15.0944 16.0075C15.0944 15.7572 15.1789 15.5374 15.348 15.348C15.5577 15.1722 15.7877 15.0843 16.0379 15.0843C16.2747 15.0843 16.4877 15.1722 16.6771 15.348L18.2192 16.9409C18.3951 17.1032 18.483 17.3163 18.483 17.5801C18.483 17.8371 18.3968 18.0518 18.2243 18.2243C18.0518 18.3968 17.8371 18.483 17.5801 18.483C17.3163 18.483 17.1032 18.3951 16.9409 18.2192L15.348 16.6771C15.1789 16.4945 15.0944 16.2713 15.0944 16.0075ZM17.854 23.4949C17.854 22.4871 18.1076 21.5487 18.6149 20.6795C19.1222 19.8104 19.8104 19.1222 20.6795 18.6149C21.5487 18.1076 22.4871 17.854 23.4949 17.854C24.2525 17.854 24.9796 18.0045 25.6762 18.3055C26.3729 18.6065 26.9732 19.0089 27.4771 19.5128C27.981 20.0167 28.3817 20.617 28.6793 21.3136C28.9769 22.0103 29.1257 22.7374 29.1257 23.4949C29.1257 24.5095 28.8738 25.4496 28.3699 26.3154C27.866 27.1811 27.1811 27.866 26.3154 28.3699C25.4496 28.8738 24.5095 29.1257 23.4949 29.1257C22.4804 29.1257 21.5402 28.8738 20.6745 28.3699C19.8087 27.866 19.1222 27.1811 18.6149 26.3154C18.1076 25.4496 17.854 24.5095 17.854 23.4949ZM19.6903 23.4949C19.6903 24.5501 20.0607 25.4513 20.8013 26.1987C21.5419 26.9461 22.4398 27.3198 23.4949 27.3198C24.5501 27.3198 25.4513 26.9461 26.1987 26.1987C26.9461 25.4513 27.3198 24.5501 27.3198 23.4949C27.3198 22.4533 26.9461 21.5639 26.1987 20.8266C25.4513 20.0894 24.5501 19.7208 23.4949 19.7208C22.4466 19.7208 21.5504 20.0894 20.8064 20.8266C20.0623 21.5639 19.6903 22.4533 19.6903 23.4949ZM22.5717 31.9056C22.5717 31.6486 22.6613 31.4321 22.8405 31.2563C23.0198 31.0804 23.2379 30.9925 23.4949 30.9925C23.7587 30.9925 23.9785 31.0804 24.1544 31.2563C24.3302 31.4321 24.4182 31.6486 24.4182 31.9056V34.0565C24.4182 34.3202 24.3286 34.5434 24.1493 34.7261C23.9701 34.9087 23.7519 35 23.4949 35C23.2379 35 23.0198 34.9087 22.8405 34.7261C22.6613 34.5434 22.5717 34.3202 22.5717 34.0565V31.9056ZM22.5717 15.135V12.9232C22.5717 12.673 22.663 12.4566 22.8456 12.2739C23.0282 12.0913 23.2447 12 23.4949 12C23.7452 12 23.9616 12.0913 24.1442 12.2739C24.3269 12.4566 24.4182 12.673 24.4182 12.9232V15.135C24.4182 15.3852 24.3286 15.5932 24.1493 15.7589C23.9701 15.9246 23.7519 16.0075 23.4949 16.0075C23.2379 16.0075 23.0198 15.9246 22.8405 15.7589C22.6613 15.5932 22.5717 15.3852 22.5717 15.135ZM28.5474 29.3996C28.5474 29.1494 28.6286 28.9465 28.7909 28.7909C28.9532 28.6218 29.1562 28.5373 29.3996 28.5373C29.6634 28.5373 29.8799 28.6218 30.049 28.7909L31.6317 30.333C31.8075 30.5224 31.8955 30.7422 31.8955 30.9925C31.8955 31.2428 31.8075 31.4558 31.6317 31.6317C31.1988 31.9699 30.7659 31.9699 30.333 31.6317L28.7909 30.0895C28.6286 29.9069 28.5474 29.677 28.5474 29.3996ZM28.5474 17.5801C28.5474 17.3095 28.6286 17.0965 28.7909 16.9409L30.333 15.348C30.5224 15.1722 30.7355 15.0843 30.9722 15.0843C31.2292 15.0843 31.4474 15.1756 31.6266 15.3582C31.8058 15.5408 31.8955 15.7572 31.8955 16.0075C31.8955 16.278 31.8075 16.5012 31.6317 16.6771L30.049 18.2192C29.8528 18.3951 29.6364 18.483 29.3996 18.483C29.1562 18.483 28.9532 18.3968 28.7909 18.2243C28.6286 18.0518 28.5474 17.8371 28.5474 17.5801ZM30.9925 23.4949C30.9925 23.2379 31.0804 23.0147 31.2563 22.8253C31.4321 22.6495 31.6384 22.5615 31.8752 22.5615H34.0666C34.3169 22.5615 34.535 22.6545 34.721 22.8405C34.907 23.0265 35 23.2447 35 23.4949C35 23.7452 34.907 23.9616 34.721 24.1442C34.535 24.3269 34.3169 24.4182 34.0666 24.4182H31.8752C31.6249 24.4182 31.4152 24.3286 31.2461 24.1493C31.077 23.9701 30.9925 23.7519 30.9925 23.4949Z" fill="white"/>
</svg>
