<svg width="40" height="40" viewBox="0 0 40 40" fill="none" xmlns="http://www.w3.org/2000/svg">
<rect width="40" height="40" rx="5" fill="#2B9CED"/>
<path d="M20.5026 14.6031C17.2392 14.6031 14.607 17.2359 14.607 20.5C14.607 23.7641 17.2392 26.3969 20.5026 26.3969C23.7659 26.3969 26.3982 23.7641 26.3982 20.5C26.3982 17.2359 23.7659 14.6031 20.5026 14.6031ZM20.5026 24.3338C18.3937 24.3338 16.6697 22.6145 16.6697 20.5C16.6697 18.3855 18.3886 16.6662 20.5026 16.6662C22.6166 16.6662 24.3355 18.3855 24.3355 20.5C24.3355 22.6145 22.6114 24.3338 20.5026 24.3338V24.3338ZM28.0144 14.3619C28.0144 15.1266 27.3987 15.7373 26.6393 15.7373C25.8748 15.7373 25.2642 15.1214 25.2642 14.3619C25.2642 13.6023 25.8799 12.9864 26.6393 12.9864C27.3987 12.9864 28.0144 13.6023 28.0144 14.3619ZM31.9192 15.7578C31.832 13.9154 31.4112 12.2833 30.0617 10.9387C28.7174 9.59405 27.0857 9.17321 25.2437 9.08083C23.3452 8.97306 17.6548 8.97306 15.7563 9.08083C13.9194 9.16808 12.2877 9.58892 10.9383 10.9336C9.58879 12.2782 9.17317 13.9102 9.08081 15.7527C8.97306 17.6516 8.97306 23.3432 9.08081 25.2422C9.16804 27.0846 9.58879 28.7167 10.9383 30.0613C12.2877 31.4059 13.9143 31.8268 15.7563 31.9192C17.6548 32.0269 23.3452 32.0269 25.2437 31.9192C27.0857 31.8319 28.7174 31.4111 30.0617 30.0613C31.4061 28.7167 31.8268 27.0846 31.9192 25.2422C32.0269 23.3432 32.0269 17.6568 31.9192 15.7578V15.7578ZM29.4665 27.2796C29.0663 28.2856 28.2915 29.0605 27.2807 29.466C25.767 30.0664 22.1753 29.9279 20.5026 29.9279C18.8298 29.9279 15.233 30.0613 13.7244 29.466C12.7187 29.0657 11.9439 28.2907 11.5386 27.2796C10.9383 25.7656 11.0768 22.1731 11.0768 20.5C11.0768 18.8269 10.9434 15.2292 11.5386 13.7204C11.9388 12.7144 12.7136 11.9395 13.7244 11.534C15.2381 10.9336 18.8298 11.0721 20.5026 11.0721C22.1753 11.0721 25.7722 10.9387 27.2807 11.534C28.2864 11.9343 29.0612 12.7093 29.4665 13.7204C30.0669 15.2344 29.9283 18.8269 29.9283 20.5C29.9283 22.1731 30.0669 25.7708 29.4665 27.2796Z" fill="white"/>
</svg>
