<svg width="61" height="10" viewBox="0 0 61 10" fill="none" xmlns="http://www.w3.org/2000/svg">
<path d="M5 0L6.12257 3.45492H9.75528L6.81636 5.59017L7.93893 9.04508L5 6.90983L2.06107 9.04508L3.18364 5.59017L0.244718 3.45492H3.87743L5 0Z" fill="#00DB71"/>
<path d="M17 0L18.1226 3.45492H21.7553L18.8164 5.59017L19.9389 9.04508L17 6.90983L14.0611 9.04508L15.1836 5.59017L12.2447 3.45492H15.8774L17 0Z" fill="#00DB71"/>
<path d="M30 0L31.1226 3.45492H34.7553L31.8164 5.59017L32.9389 9.04508L30 6.90983L27.0611 9.04508L28.1836 5.59017L25.2447 3.45492H28.8774L30 0Z" fill="#00DB71"/>
<path d="M43 0L44.1226 3.45492H47.7553L44.8164 5.59017L45.9389 9.04508L43 6.90983L40.0611 9.04508L41.1836 5.59017L38.2447 3.45492H41.8774L43 0Z" fill="#00DB71"/>
<path d="M56 0L57.1226 3.45492H60.7553L57.8164 5.59017L58.9389 9.04508L56 6.90983L53.0611 9.04508L54.1836 5.59017L51.2447 3.45492H54.8774L56 0Z" fill="#00DB71"/>
</svg>
